# xmcd
#
# Track frame offsets: 
#        150
#        11614
#        25154
#        43348
#        55390
#        67149
#        81454
#        96476
#        113187
#        129930
#
# Disc length: 1940 seconds
#
# Revision: 0
# Processed by: cddbd v1.5.2PL0 Copyright (c) Steve Scherf et al.
# Submitted via: ExactAudioCopyFreeDBPlugin 1.0
#
DISCID=8e07920a
DTITLE=Pierre Perret - Lily
DYEAR=2011
DGENRE=Variété française
TTITLE0=Les enfants foutez-leur la paix
TTITLE1=Lily
TTITLE2=Vingt-six ans à nous deux
TTITLE3=Au café du canal
TTITLE4=Le petit potier
TTITLE5=L'oiseau dans l'allée
TTITLE6=Adam et Ève
TTITLE7=L'amour sans amour
TTITLE8=Le bouillon d'canard
TTITLE9=Quand l'amour vous fait signe
EXTD=Intégrale 1957 - 2011
EXTT0=
EXTT1=
EXTT2=
EXTT3=
EXTT4=
EXTT5=
EXTT6=
EXTT7=
EXTT8=
EXTT9=
PLAYORDER=
